<svg width="122" height="40" viewBox="0 0 122 40" fill="none" xmlns="http://www.w3.org/2000/svg">
<path d="M1.81482 13.3889L2.48247 11.7455C2.23082 12.2847 2.01511 12.8394 1.81482 13.3889ZM20.7298 4.13023e-06C16.8827 0.00417896 13.1178 1.11336 9.8829 3.19559C6.64802 5.27782 4.07935 8.24546 2.48247 11.7455L15.024 18.8071L17.1707 20.0294L17.6843 19.7418L27.3909 14.3801L27.5295 14.3031L37.3542 8.83863C35.5198 6.11569 33.0442 3.88543 30.1453 2.34417C27.2464 0.802904 24.013 -0.00210409 20.7298 4.13023e-06ZM17.1348 17.6413L5.35849 11.0059C6.7909 8.56672 8.78291 6.50317 11.1701 4.98563C13.5572 3.46809 16.2711 2.54007 19.0877 2.27819C21.9042 2.0163 24.7426 2.42805 27.3687 3.47946C29.9947 4.53086 32.333 6.19176 34.1906 8.32506L17.1348 17.6413Z" fill="#00B0ED"/>
<path d="M35.3975 30.2294L4.42379 12.8398L2.49789 11.7305C2.16677 12.4599 1.88203 13.2095 1.64535 13.9748C0.275649 18.3726 0.461129 23.1078 2.17064 27.385C3.88014 31.6622 7.00953 35.2208 11.0331 37.463C15.0567 39.7052 19.7294 40.4945 24.2662 39.6982C28.803 38.9018 32.9276 36.5685 35.947 33.0901C36.4394 32.5299 36.8989 31.9417 37.3234 31.3285L35.3975 30.2294ZM20.7966 37.8098C18.0358 37.8067 15.3134 37.1642 12.8425 35.9327C10.3716 34.7012 8.21957 32.9142 6.55494 30.7118C4.89032 28.5094 3.75838 25.9514 3.24785 23.2383C2.73733 20.5252 2.86208 17.7307 3.61234 15.0738L33.9749 31.991C32.3046 33.8252 30.2696 35.2902 28.0003 36.2922C25.7309 37.2942 23.2773 37.8112 20.7966 37.8098Z" fill="#FF0000"/>
<path d="M36.2963 13.0586L24.3608 19.5142L23.4518 20.0278L24.4327 20.5414L36.2963 27.0175L37.3234 27.5825V12.5039L36.2963 13.0586ZM36.2963 26.0572L25.3161 20.074L36.2963 14.0857V26.0572Z" fill="#FFCC2E"/>
<path fill-rule="evenodd" clip-rule="evenodd" d="M116.707 23.1962V21.0391H120.933V18.9848H116.707V17.1668H121.139V15.1484H116.707H113.672V17.1668V18.9848V21.0391V23.1962V25.2196H116.707H121.262V23.1962H116.707Z" fill="black"/>
<path fill-rule="evenodd" clip-rule="evenodd" d="M82.9545 23.1974V21.0352H87.1864V18.9809H82.9545V17.1629H87.3918V15.1445H82.9545H79.9193V17.1629V18.9809V21.0352V23.1974V25.2157H82.9545H87.5151V23.1974H82.9545Z" fill="black"/>
<path fill-rule="evenodd" clip-rule="evenodd" d="M107.257 19.6706V21.7249H108.587V22.8701C108.361 22.9266 105.336 23.62 104.371 21.2113C104.371 21.2113 103.415 18.8694 105.973 17.4519C105.973 17.4519 108.13 16.3888 111.068 18.1042V15.7366C111.068 15.7366 105.963 13.898 102.922 16.1577C102.922 16.1577 101.145 17.303 101.109 20.1636C101.08 21.0696 101.298 21.9665 101.74 22.7575C102.183 23.5486 102.833 24.2037 103.621 24.6523C103.621 24.6523 106.522 26.3214 111.278 24.5341V19.6706H107.257Z" fill="black"/>
<path fill-rule="evenodd" clip-rule="evenodd" d="M97.4785 15.9201C95.8248 14.9751 92.5687 15.1446 92.5687 15.1446H92.2452H89.5489V25.2261H94.9825C95.6229 25.2416 96.2615 25.1514 96.8725 24.959C97.6586 24.6761 98.3523 24.1834 98.8783 23.5343C99.4043 22.8852 99.7425 22.1044 99.8563 21.2767C100.054 20.2479 99.9315 19.1834 99.5065 18.2259C99.0815 17.2685 98.3738 16.4639 97.4785 15.9201ZM96.6825 21.4667C96.1689 23.2386 93.8783 23.1359 93.8783 23.1359H92.5687V17.1887H94.2019C94.5536 17.2162 94.8995 17.294 95.229 17.4198C95.5936 17.5847 95.9217 17.8204 96.1946 18.1131C97.1447 19.4535 96.8006 20.7015 96.6825 21.4667Z" fill="black"/>
<path fill-rule="evenodd" clip-rule="evenodd" d="M76.6684 15.0703H76.2319V22.9588L69.3757 15.0703H68.1996V25.2237H69.5811V24.4687V17.4019L76.3654 25.2237H77.6186V15.0703H76.6684Z" fill="black"/>
<path fill-rule="evenodd" clip-rule="evenodd" d="M66.1401 20.8326V15.0703H64.6764V20.8326L64.6302 21.983C64.5556 22.3983 64.3744 22.7871 64.1043 23.1112C63.8342 23.4353 63.4845 23.6837 63.0895 23.8319C62.2063 24.1279 61.2507 24.1279 60.3675 23.8319C59.4534 23.3183 59.2839 23.005 59.2839 23.005C58.9295 22.5685 58.8525 21.5157 58.8422 20.8326V15.0703H57.3837V21.1305C57.3837 21.4489 57.4402 22.0447 57.4402 22.0447C57.5015 22.5887 57.6843 23.1121 57.9749 23.5761C58.2656 24.0401 58.6568 24.4329 59.1195 24.7255C60.2334 25.2723 61.4888 25.4624 62.7146 25.2699C63.2553 25.2028 63.777 25.0273 64.2483 24.7537C64.7195 24.4801 65.1307 24.1142 65.4571 23.6778C66.2428 22.6764 66.1401 20.8326 66.1401 20.8326Z" fill="black"/>
<path fill-rule="evenodd" clip-rule="evenodd" d="M55.8378 23.627L54.6104 21.7319C54.2335 21.2272 53.7914 20.7747 53.2956 20.3863C53.8033 20.185 54.2385 19.8351 54.544 19.3823C54.8495 18.9296 55.0112 18.3952 55.0078 17.849C55.0045 17.3028 54.8363 16.7704 54.5253 16.3214C54.2143 15.8724 53.7749 15.5278 53.2648 15.3327C52.5984 15.1356 51.9053 15.0438 51.2105 15.0605H49.1151V25.2242H50.5531V20.8023C51.6881 20.7355 51.7035 20.8485 51.9449 20.9666C52.1878 21.1143 52.415 21.2864 52.6228 21.4802C52.9515 21.6086 55.1907 25.2036 55.1907 25.2036H56.9215L55.8378 23.627ZM51.6573 19.5184H50.5531V16.3342H51.7035C53.7578 16.3958 53.4702 18.0752 53.4702 18.0752C53.3521 19.6519 51.6573 19.5184 51.6573 19.5184Z" fill="black"/>
<path fill-rule="evenodd" clip-rule="evenodd" d="M44.9038 15.0508H42.8854H41.4063V25.2196H42.8495V20.808H44.1745C44.7409 20.8264 45.3065 20.7518 45.8487 20.5871C46.3903 20.4311 46.8681 20.1065 47.2126 19.6604C47.5571 19.2143 47.7503 18.67 47.7644 18.1066C47.9338 15.1432 44.9038 15.0508 44.9038 15.0508ZM46.3212 18.0809C46.2545 19.6216 44.4775 19.5189 44.4775 19.5189H42.8854V16.3347H44.3902C44.782 16.2968 45.1769 16.3623 45.5355 16.5247C45.8138 16.6668 46.0388 16.8952 46.1767 17.1756C46.3146 17.4561 46.3581 17.7737 46.3007 18.0809H46.3212Z" fill="black"/>
</svg>
