<svg width="88" height="89" viewBox="0 0 88 89" fill="none" xmlns="http://www.w3.org/2000/svg">
<path d="M64.625 86.0391C76.0159 86.0391 85.25 76.8049 85.25 65.4141C85.25 54.0232 76.0159 44.7891 64.625 44.7891C53.2341 44.7891 44 54.0232 44 65.4141C44 76.8049 53.2341 86.0391 64.625 86.0391Z" fill="#3B89FF"/>
<path opacity="0.25" d="M64.625 44.7894C61.5834 44.7744 58.5761 45.4323 55.8186 46.7159C53.0611 47.9996 50.6217 49.8773 48.675 52.2144C52.5849 48.5712 57.7561 46.5878 63.0994 46.6821C68.4427 46.7764 73.5408 48.941 77.3196 52.7198C81.0985 56.4987 83.2631 61.5968 83.3574 66.9401C83.4516 72.2833 81.4682 77.4546 77.825 81.3644C81.1221 78.6615 83.5006 75.0033 84.6332 70.8931C85.7658 66.7829 85.5968 62.4227 84.1495 58.4125C82.7022 54.4023 80.0477 50.9391 76.5513 48.4995C73.0549 46.0599 68.8884 44.7638 64.625 44.7894Z" fill="white"/>
<path d="M64.625 44.7891C69.0892 44.7791 73.4346 46.2275 77 48.9141V17.2891H2.75V66.7891H44.1375C44.1375 66.3766 44 65.8266 44 65.4141C44 59.944 46.173 54.6979 50.0409 50.83C53.9089 46.962 59.1549 44.7891 64.625 44.7891Z" fill="#E3EEFF"/>
<path opacity="0.14" d="M35.75 66.7891H44.1375C44.1375 66.3766 44 65.8266 44 65.4141C43.9984 61.2476 45.2587 57.1784 47.615 53.7422C49.9712 50.306 53.3129 47.664 57.2 46.1641H56.375C50.9049 46.1641 45.6589 48.337 41.7909 52.205C37.923 56.0729 35.75 61.319 35.75 66.7891Z" fill="#000064"/>
<path opacity="0.14" d="M2.75 17.2891L39.875 45.6141L77 17.2891V19.3516L35.75 55.7891L2.75 23.4766V17.2891Z" fill="#000064"/>
<path d="M44 66.7891H2.75V17.2891H77V48.9141" stroke="#003D97" stroke-width="2.75757" stroke-miterlimit="10" stroke-linecap="round" stroke-linejoin="round"/>
<path d="M72.875 61.2891L61.875 72.2891L56.375 66.7891M2.75 17.2891L39.875 45.6141L77 17.2891H2.75Z" stroke="#003D97" stroke-width="2.75757" stroke-miterlimit="10" stroke-linecap="round" stroke-linejoin="round"/>
<path d="M64.625 86.0391C76.0159 86.0391 85.25 76.8049 85.25 65.4141C85.25 54.0232 76.0159 44.7891 64.625 44.7891C53.2341 44.7891 44 54.0232 44 65.4141C44 76.8049 53.2341 86.0391 64.625 86.0391Z" stroke="#003D97" stroke-width="2.75757" stroke-miterlimit="10" stroke-linecap="round" stroke-linejoin="round"/>
</svg>
