<svg width="48" height="48" viewBox="0 0 48 48" fill="none" xmlns="http://www.w3.org/2000/svg">
<path fill-rule="evenodd" clip-rule="evenodd" d="M25.9181 0.201193C31.5016 -0.765594 37.4029 1.86238 41.5582 5.71493C45.4882 9.35865 46.5324 14.9557 47.5146 20.2242C48.3806 24.87 48.0471 29.4697 46.8381 34.0383C45.5603 38.8671 44.7684 44.7564 40.3878 47.1565C36.0234 49.5476 30.8502 46.1637 25.9181 45.4999C21.8404 44.9511 17.6301 45.5937 14.0263 43.6085C10.0982 41.4446 7.22918 37.9455 5.06939 34.0152C2.48308 29.3087 -1.37365 24.0156 0.492352 18.98C2.36156 13.9357 9.44634 13.7219 13.7736 10.5259C18.1548 7.29003 20.5513 1.13048 25.9181 0.201193Z" fill="#F0F5FF"/>
<g clip-path="url(#clip0_15868_82260)">
<path d="M27.5624 24.1875C23.8403 24.1875 20.8124 27.2154 20.8124 30.9375C20.8124 34.6596 23.8403 37.6875 27.5624 37.6875C31.2844 37.6875 34.3124 34.6596 34.3124 30.9375C34.3124 27.2154 31.2844 24.1875 27.5624 24.1875ZM27.5624 36.5625C24.4608 36.5625 21.9374 34.0391 21.9374 30.9375C21.9374 27.8359 24.4608 25.3125 27.5624 25.3125C30.664 25.3125 33.1874 27.8359 33.1874 30.9375C33.1874 34.0391 30.664 36.5625 27.5624 36.5625Z" fill="#6B6C7E"/>
<path d="M27.5625 34.3142V35.4392C28.0041 35.4392 28.4411 35.3751 28.8613 35.2491L28.5373 34.1719C28.2223 34.2664 27.8944 34.3142 27.5625 34.3142Z" fill="#6B6C7E"/>
<path d="M27.5625 26.4375V27.5625C29.4238 27.5625 30.9375 29.0762 30.9375 30.9375C30.9375 32.0732 30.3716 33.1256 29.4238 33.7539L30.0448 34.6916C31.3082 33.8546 32.0625 32.4512 32.0625 30.9375C32.0625 28.4563 30.0437 26.4375 27.5625 26.4375Z" fill="#6B6C7E"/>
<path d="M24.7499 16.3125C24.7499 14.4945 23.6643 12.9285 22.1089 12.2192C22.6889 11.7034 23.0624 10.9603 23.0624 10.125C23.0624 8.57419 21.8007 7.3125 20.2499 7.3125C18.6991 7.3125 17.4374 8.57419 17.4374 10.125C17.4374 10.9603 17.8109 11.7034 18.3908 12.2192C16.8355 12.9285 15.7499 14.4945 15.7499 16.3125V17.4375H24.7499V16.3125ZM18.5624 10.125C18.5624 9.19463 19.3195 8.4375 20.2499 8.4375C21.1803 8.4375 21.9374 9.19463 21.9374 10.125C21.9374 11.0554 21.1803 11.8125 20.2499 11.8125C19.3195 11.8125 18.5624 11.0554 18.5624 10.125ZM16.8749 16.3125C16.8749 14.4512 18.3886 12.9375 20.2499 12.9375C22.1112 12.9375 23.6249 14.4512 23.6249 16.3125H16.8749Z" fill="#6B6C7E"/>
<path d="M25.8751 7.3125H29.2501V8.4375H25.8751V7.3125Z" fill="#6B6C7E"/>
<path d="M25.8751 9.5625H29.2501V10.6875H25.8751V9.5625Z" fill="#6B6C7E"/>
<path d="M25.8751 11.8125H29.2501V12.9375H25.8751V11.8125Z" fill="#6B6C7E"/>
<path d="M25.8751 14.0625H29.2501V15.1875H25.8751V14.0625Z" fill="#6B6C7E"/>
<path d="M25.8751 16.3125H29.2501V17.4375H25.8751V16.3125Z" fill="#6B6C7E"/>
<path d="M33.8398 12.5234L34.0739 11.423L37.375 12.1251L37.141 13.2255L33.8398 12.5234Z" fill="#6B6C7E"/>
<path d="M33.3717 14.7266L33.6057 13.6262L36.9069 14.3283L36.6729 15.4287L33.3717 14.7266Z" fill="#6B6C7E"/>
<path d="M32.9031 16.9258L33.1371 15.8254L36.4377 16.5274L36.2037 17.6278L32.9031 16.9258Z" fill="#6B6C7E"/>
<path d="M32.4355 19.1289L32.6696 18.0285L35.9707 18.7306L35.7367 19.831L32.4355 19.1289Z" fill="#6B6C7E"/>
<path d="M31.9641 21.3242L32.1981 20.2238L35.4993 20.9259L35.2653 22.0263L31.9641 21.3242Z" fill="#6B6C7E"/>
<path d="M40.0428 10.3877L31.5001 8.57194V5.0625H13.5001V8.57194L4.9574 10.3877L8.72784 28.125H7.87509C6.32427 28.125 5.06258 29.3867 5.06258 30.9375C5.06258 32.4883 6.32427 33.75 7.87509 33.75H16.3126V32.625H18.7268C19.5194 36.783 23.1773 39.9375 27.5626 39.9375C32.525 39.9375 36.5626 35.8999 36.5626 30.9375C36.5626 30.0673 36.4321 29.2286 36.2009 28.4321L40.0428 10.3877ZM38.7074 11.2539L35.4455 26.6029C34.5505 24.9823 33.1679 23.6728 31.5001 22.8572V9.72225L38.7074 11.2539ZM30.3751 6.1875V22.3937C30.0095 22.2728 29.6343 22.1749 29.2501 22.1017V18.5625H15.7501V27H19.4823C19.1375 27.7048 18.8781 28.4574 18.7268 29.25H16.3126V28.125H14.6251V6.1875H30.3751ZM20.1275 25.875H16.8751V19.6875H28.1251V21.9662C27.9383 21.9544 27.7527 21.9375 27.5626 21.9375C24.4762 21.9375 21.7491 23.5001 20.1275 25.875ZM12.1788 28.125L11.3001 23.9912L13.5001 23.5238V28.125H12.1788ZM11.069 18.1502C11.56 17.3942 12.316 16.8744 13.198 16.6871C13.2959 16.6663 13.3983 16.6551 13.5001 16.6438V20.0734L10.5987 20.6904C10.4108 19.8084 10.5785 18.9062 11.069 18.1502ZM11.6939 15.3517C11.3159 15.1059 11.056 14.7285 10.9626 14.2869C10.8687 13.8459 10.952 13.3954 11.1978 13.0174C11.4436 12.6394 11.821 12.3795 12.262 12.2856C12.6895 12.195 13.1277 12.2867 13.5001 12.5229V15.3484C13.3302 15.4586 13.1536 15.5469 12.964 15.5869C12.5225 15.6802 12.0719 15.597 11.6939 15.3517ZM6.29277 11.2539L13.5001 9.72225V11.2753C13.0304 11.1156 12.5253 11.079 12.028 11.1853C11.2934 11.3417 10.6634 11.7743 10.2545 12.4043C9.84552 13.0343 9.70602 13.7863 9.8624 14.5204C10.0182 15.2556 10.4519 15.8856 11.0819 16.2945C11.128 16.3243 11.177 16.3462 11.2242 16.3733C10.7978 16.6894 10.4238 17.0786 10.1262 17.5371C9.47146 18.5451 9.24815 19.7477 9.49846 20.9233L9.73134 22.0247L13.5001 21.2231V22.3734L9.96534 23.1249L11.0279 28.125H9.87815L6.29277 11.2539ZM15.1876 32.625H7.87509C6.94471 32.625 6.18759 31.8679 6.18759 30.9375C6.18759 30.0071 6.94471 29.25 7.87509 29.25H15.1876V32.625ZM16.3126 31.5V30.375H18.5913C18.5795 30.5618 18.5626 30.7474 18.5626 30.9375C18.5626 31.1276 18.5795 31.3132 18.5913 31.5H16.3126ZM27.5626 38.8125C23.2201 38.8125 19.6876 35.28 19.6876 30.9375C19.6876 26.595 23.2201 23.0625 27.5626 23.0625C31.9051 23.0625 35.4376 26.595 35.4376 30.9375C35.4376 35.28 31.9051 38.8125 27.5626 38.8125Z" fill="#6B6C7E"/>
</g>
<defs>
<clipPath id="clip0_15868_82260">
<rect width="36" height="36" fill="white" transform="translate(4.5 4.5)"/>
</clipPath>
</defs>
</svg>
